# xmcd
#
# Track frame offsets:
#	150
#	21755
#	35507
#	49845
#	64710
#	77505
#	95680
#	111040
#	127562
#	140937
#	155727
#	172607
#	185632
#	206332
#
# Disc length: 2964
#
# Revision: 2
# Processed by: cddbd v1.5.1PL0 Copyright (c) Steve Scherf et al.
# Submitted via: DiscPlay 4.0.4
# Normalized: r1:DSETVAR1
#
DISCID=b50b920e
DTITLE=Various Artist - Mr Music Country 3/96
DYEAR=1900
DGENRE=
TTITLE0=Rodney Crowell - Jewel of the south
TTITLE1=George Jones and Tammy Wynette - WIll you travel down this road with m
TTITLE2=rank Jantzen - The heart that you own
TTITLE3=Mark Chesnutt - Settlin' for what they get
TTITLE4=Tracy Byrd - You lied to me
TTITLE5=Vince GIll - Pocket full of gold
TTITLE6=Gary Fjellgaard - Ten years old and Barefoot
TTITLE7=Bobbie Cryner - I didn't know my own strength
TTITLE8=Rayburn anthony - Nashville here I come
TTITLE9=Melba Montgomery - After losing you
TTITLE10=Country trail band and Wim pols - Rodeo preacher
TTITLE11=George Allison - She'd make a bulldog break his chain
TTITLE12=Reba McEntire - Please come to boston
TTITLE13=Josh Logan - Man who moaned the blues
EXTD=
EXTT0=
EXTT1=
EXTT2=
EXTT3=
EXTT4=
EXTT5=
EXTT6=
EXTT7=
EXTT8=
EXTT9=
EXTT10=
EXTT11=
EXTT12=
EXTT13=
PLAYORDER=
